# xmcd
# 
# Track frame offsets:
#   150
#   17626
#   31808
#   55985
#   74765
#   95363
#   109601
#   125727
#   154595
#   195743
#   224589
#   243808
#   259822
# 
# Disc length: 3767 seconds
# 
# Revision: 1
# Processed by: cddbd v1.4PL0 Copyright (c) Steve Scherf et al.
# Submitted via: VOLTOCDX V1.0.22 
# 
DISCID=b70eb50d
DTITLE=Little Jenny and the Blue Beans  - Live!
DYEAR=2002
DGENRE=blues
TTITLE0=Neighour
TTITLE1=Where you've been so long
TTITLE2=I'm ready
TTITLE3=Autumn blues
TTITLE4=Penthouse Pauper
TTITLE5=Schting Schtang
TTITLE6=I mitt skafferi (In my pantry)
TTITLE7=Commit a crime
TTITLE8=Free
TTITLE9=I'm a woman
TTITLE10=Wisdom
TTITLE11=Why woman cry
TTITLE12=Jump Train
EXTD=
EXTT0=
EXTT1=
EXTT2=
EXTT3=
EXTT4=
EXTT5=
EXTT6=
EXTT7=
EXTT8=
EXTT9=
EXTT10=
EXTT11=
EXTT12=
PLAYORDER=
